<svg xmlns="http://www.w3.org/2000/svg" width="1400" height="780" viewBox="0 0 1400 780" role="img" aria-label="Topology Studio futuristic landing view">
  <defs>
    <linearGradient id="bg" x1="0" y1="0" x2="1" y2="1">
      <stop offset="0%" stop-color="#071126"/>
      <stop offset="60%" stop-color="#0c1731"/>
      <stop offset="100%" stop-color="#0a142c"/>
    </linearGradient>
    <linearGradient id="panel" x1="0" y1="0" x2="0" y2="1">
      <stop offset="0%" stop-color="#101a36"/>
      <stop offset="100%" stop-color="#0f1933"/>
    </linearGradient>
    <filter id="softGlow">
      <feGaussianBlur stdDeviation="2.2" result="b"/>
      <feMerge>
        <feMergeNode in="b"/>
        <feMergeNode in="SourceGraphic"/>
      </feMerge>
    </filter>
  </defs>

  <rect width="1400" height="780" fill="url(#bg)"/>
  <circle cx="240" cy="120" r="220" fill="#0ea5e9" fill-opacity="0.08"/>
  <circle cx="1180" cy="96" r="210" fill="#6366f1" fill-opacity="0.12"/>

  <rect x="60" y="48" width="1280" height="684" rx="24" fill="#0b152d" stroke="#334155" stroke-width="1.5"/>
  <rect x="60" y="48" width="1280" height="98" rx="24" fill="#0d1833" stroke="#334155" stroke-width="1.5"/>

  <text x="96" y="98" font-family="Avenir Next, Arial, sans-serif" font-size="36" font-weight="700" fill="#e2e8f0">Topology Studio</text>
  <text x="98" y="124" font-family="Avenir Next, Arial, sans-serif" font-size="16" fill="#9ca3af">Design, deploy, and observe container labs from one UI.</text>

  <g font-family="Avenir Next, Arial, sans-serif" font-size="15" font-weight="600">
    <rect x="620" y="78" width="96" height="34" rx="17" fill="#06b6d4" fill-opacity="0.2" stroke="#22d3ee"/>
    <text x="648" y="100" fill="#e2e8f0">Build</text>
    <rect x="730" y="78" width="122" height="34" rx="17" fill="#111f40" stroke="#475569"/>
    <text x="755" y="100" fill="#9ca3af">Lab Viewer</text>
    <rect x="866" y="78" width="118" height="34" rx="17" fill="#111f40" stroke="#475569"/>
    <text x="892" y="100" fill="#9ca3af">Live Topology</text>
    <rect x="998" y="78" width="84" height="34" rx="17" fill="#111f40" stroke="#475569"/>
    <text x="1026" y="100" fill="#9ca3af">Health</text>
  </g>

  <rect x="94" y="172" width="604" height="290" rx="16" fill="url(#panel)" stroke="#334155"/>
  <text x="122" y="208" font-family="Avenir Next, Arial, sans-serif" font-size="28" font-weight="700" fill="#e2e8f0">Build Controls</text>
  <text x="122" y="234" font-family="Avenir Next, Arial, sans-serif" font-size="14" fill="#9ca3af">Leaf/Spine • FRR • Multi-homing enabled</text>
  <rect x="122" y="254" width="262" height="44" rx="10" fill="#0b1731" stroke="#334155"/>
  <rect x="404" y="254" width="262" height="44" rx="10" fill="#0b1731" stroke="#334155"/>
  <rect x="122" y="314" width="126" height="44" rx="10" fill="#0b1731" stroke="#334155"/>
  <rect x="264" y="314" width="126" height="44" rx="10" fill="#0b1731" stroke="#334155"/>
  <rect x="406" y="314" width="126" height="44" rx="10" fill="#0b1731" stroke="#334155"/>
  <rect x="548" y="314" width="118" height="44" rx="10" fill="#0b1731" stroke="#334155"/>
  <rect x="122" y="374" width="544" height="62" rx="12" fill="#0a1328" stroke="#334155"/>

  <rect x="722" y="172" width="584" height="290" rx="16" fill="url(#panel)" stroke="#334155"/>
  <text x="750" y="208" font-family="Avenir Next, Arial, sans-serif" font-size="28" font-weight="700" fill="#e2e8f0">Topology Preview</text>
  <rect x="750" y="228" width="528" height="214" rx="12" fill="#0a1328" stroke="#334155"/>

  <line x1="870" y1="296" x2="980" y2="364" stroke="#7dd3fc" stroke-width="2.4" filter="url(#softGlow)"/>
  <line x1="980" y1="296" x2="980" y2="364" stroke="#7dd3fc" stroke-width="2.4" filter="url(#softGlow)"/>
  <line x1="1090" y1="296" x2="980" y2="364" stroke="#7dd3fc" stroke-width="2.4" filter="url(#softGlow)"/>
  <line x1="980" y1="364" x2="920" y2="408" stroke="#00f5d4" stroke-width="2.8" filter="url(#softGlow)"/>
  <line x1="980" y1="364" x2="1040" y2="408" stroke="#00f5d4" stroke-width="2.8" filter="url(#softGlow)"/>

  <rect x="840" y="285" width="60" height="22" rx="6" fill="#0f172a" stroke="#22d3ee"/>
  <rect x="950" y="285" width="60" height="22" rx="6" fill="#0f172a" stroke="#22d3ee"/>
  <rect x="1060" y="285" width="60" height="22" rx="6" fill="#0f172a" stroke="#22d3ee"/>
  <rect x="950" y="353" width="60" height="22" rx="6" fill="#0f172a" stroke="#86efac"/>
  <rect x="894" y="395" width="52" height="26" rx="4" fill="#111827" stroke="#f59e0b"/>
  <rect x="1014" y="395" width="52" height="26" rx="4" fill="#111827" stroke="#f59e0b"/>

  <rect x="94" y="480" width="1212" height="224" rx="16" fill="url(#panel)" stroke="#334155"/>
  <text x="122" y="516" font-family="Avenir Next, Arial, sans-serif" font-size="28" font-weight="700" fill="#e2e8f0">Validation &amp; Deploy</text>
  <rect x="122" y="534" width="188" height="38" rx="19" fill="#0f766e" stroke="#14b8a6"/>
  <text x="152" y="558" font-family="Avenir Next, Arial, sans-serif" font-size="14" font-weight="700" fill="#e2e8f0">Validate &amp; Preview</text>
  <rect x="322" y="534" width="144" height="38" rx="19" fill="#111f40" stroke="#475569"/>
  <text x="356" y="558" font-family="Avenir Next, Arial, sans-serif" font-size="14" font-weight="600" fill="#cbd5e1">Generate</text>
  <rect x="478" y="534" width="120" height="38" rx="19" fill="#111f40" stroke="#475569"/>
  <text x="513" y="558" font-family="Avenir Next, Arial, sans-serif" font-size="14" font-weight="600" fill="#cbd5e1">Deploy</text>
  <rect x="610" y="534" width="124" height="38" rx="19" fill="#111f40" stroke="#475569"/>
  <text x="646" y="558" font-family="Avenir Next, Arial, sans-serif" font-size="14" font-weight="600" fill="#cbd5e1">Destroy</text>

  <rect x="122" y="588" width="1148" height="88" rx="12" fill="#0a1328" stroke="#334155"/>
  <text x="148" y="623" font-family="Avenir Next, Arial, sans-serif" font-size="16" font-weight="600" fill="#34d399">PASS</text>
  <text x="208" y="623" font-family="Avenir Next, Arial, sans-serif" font-size="15" fill="#cbd5e1">Topology checks passed. Deploy-ready lab with live telemetry overlays.</text>
</svg>
